<svg xmlns="http://www.w3.org/2000/svg" width="71.476" height="113.987" viewBox="0 0 71.476 113.987"><defs><style>.a{fill:#5cc4ca;}.b{isolation:isolate;}.c{fill:#fff;}</style></defs><g transform="translate(-255 -405.035)"><g transform="translate(-20.704 -212.369)"><path class="a" d="M347.18,617.4l-44.2.632-18.819,34.048,3.175,35.322-8.882,9.937-2.75,15.227h39.973l-1.478,8.672,5.075,10.15,24.955-4.23-4.014-37.643Z" transform="translate(0 0)"/></g><g class="b" transform="translate(95.837 108.122)"><g class="b"><path class="c" d="M184.389,366.074l3.486-4.7-5.712.5v-3.7l5.754.42-3.57-4.662,3.612-2.058,2.6,5.124,2.478-5.124,3.57,2.016-3.57,4.746,5.8-.462v3.7l-5.8-.378,3.57,4.578-3.7,2.016L190.4,362.8l-2.73,5.334Z"/></g></g></g></svg>