<svg xmlns="http://www.w3.org/2000/svg" width="134.789" height="55.528" viewBox="0 0 134.789 55.528"><defs><style>.a{fill:#fff;}.b{fill:#2d3047;}</style></defs><g transform="translate(0 35.868)"><path class="a" d="M10.031,89.636V84.973L7.81,89.055,5.6,84.986v4.65l.71.491V91.5H2.773V90.127l.71-.491v-6.6l-.71-.491V81.163H5.847l1.976,3.642,2.041-3.642h3.023v1.382l-.7.491v6.613l.7.491V91.5H9.334V90.127Z" transform="translate(-2.773 -81.163)"/><path class="a" d="M29.776,91.5H25.992V90.127l.736-.491V83.049l-.736-.491v-1.4h3.784v1.382l-.723.491v6.6l.723.491Z" transform="translate(-13.942 -81.163)"/><path class="a" d="M43.681,82.713l.142.155V84.03H41.5v-.478l-.284-.258h-1.6l-.271.258v1.472l.052.052h3.2l1.085,1.162.142.155v3.345L42.234,91.5H38.566l-1.42-1.615-.13-.142V88.306h2.325v.8l.3.362h1.55l.31-.362V87.091l-.039-.052h-3.28l-1.163-1.4V82.868l1.4-1.537.155-.168h3.681Z" transform="translate(-19.245 -81.163)"/><path class="a" d="M60.529,82.713l.142.155V84.03H58.347v-.478l-.284-.258h-1.6l-.271.258v1.472l.052.052h3.2l1.085,1.162.142.155v3.345L59.083,91.5H55.415l-1.421-1.615-.129-.142V88.306h2.324v.8l.3.362h1.55l.31-.362V87.091l-.039-.052h-3.28l-1.163-1.4V82.868l1.4-1.537.155-.168H59.1Z" transform="translate(-27.349 -81.163)"/><path class="a" d="M74.5,91.5H70.713V90.127l.736-.491V83.049l-.736-.491v-1.4H74.5v1.382l-.723.491v6.6l.723.491Z" transform="translate(-35.454 -81.163)"/><path class="a" d="M88.4,82.713l.142.155V84.03H86.219v-.478l-.284-.258h-1.6l-.271.258v1.472l.052.052h3.2L88.4,86.239l.142.155v3.345L86.955,91.5H83.287l-1.42-1.615-.13-.142V88.306h2.325v.8l.3.362h1.55l.31-.362V87.091l-.039-.052H82.9l-1.162-1.4V82.868l1.4-1.537.155-.168h3.681Z" transform="translate(-40.757 -81.163)"/><path class="a" d="M105.25,82.713l.142.155V84.03h-2.324v-.478l-.284-.258h-1.6l-.271.258v1.472l.052.052h3.2l1.085,1.162.142.155v3.345L103.8,91.5h-3.668l-1.42-1.615-.13-.142V88.306h2.325v.8l.3.362h1.55l.31-.362V87.091l-.039-.052h-3.28l-1.163-1.4V82.868l1.4-1.537.155-.168h3.681Z" transform="translate(-48.861 -81.163)"/><path class="a" d="M119.218,91.5h-3.784V90.127l.736-.491V83.049l-.736-.491v-1.4h3.784v1.382l-.723.491v6.6l.723.491Z" transform="translate(-56.966 -81.163)"/><path class="a" d="M133.755,82.752l.142.155v3.345l-1.438,1.524-.156.168h-2.8v1.692l.775.491V91.5h-3.823V90.127l.736-.491V83.049l-.736-.491v-1.4h5.851Zm-2.182.814-.258-.271h-1.809v2.558h1.809l.258-.271Z" transform="translate(-62.268 -81.163)"/><path class="a" d="M151.25,82.752l.142.155v3.345l-1.438,1.524-.156.168H147v1.692l.775.491V91.5h-3.823V90.127l.736-.491V83.049l-.736-.491v-1.4H149.8Zm-2.182.814-.258-.271H147v2.558h1.809l.258-.271Z" transform="translate(-70.684 -81.163)"/><path class="a" d="M165.233,91.5h-3.784V90.127l.736-.491V83.049l-.736-.491v-1.4h3.784v1.382l-.723.491v6.6l.723.491Z" transform="translate(-79.1 -81.163)"/><path class="a" d="M188.8,82.713l.142.155V84.03h-2.324v-.478l-.284-.258h-1.6l-.271.258v1.472l.052.052h3.2l1.085,1.162.142.155v3.345L187.352,91.5h-3.668l-1.42-1.615-.129-.142V88.306h2.324v.8l.3.362h1.55l.31-.362V87.091l-.039-.052H183.3l-1.162-1.4V82.868l1.394-1.537.155-.168h3.681Z" transform="translate(-89.05 -81.163)"/><path class="a" d="M198.111,81.163h8.279V84.43h-1.911V83.294h-1.072v6.342l.723.491V91.5h-3.771V90.127l.723-.491V83.294h-1.059V84.43h-1.911Z" transform="translate(-96.735 -81.163)"/><path class="a" d="M221.992,90.14V91.5h-3.6V90.113l.71-.439-.426-1.407h-2.4l-.452,1.407.71.439V91.5h-3.436V90.152l.672-.542,2.493-8.072.116-.375h2.389l2.493,8.434Zm-3.778-3.418-.717-2.432-.751,2.432Z" transform="translate(-103.942 -81.163)"/><path class="a" d="M229.17,81.163h8.279V84.43h-1.911V83.294h-1.072v6.342l.723.491V91.5h-3.771V90.127l.723-.491V83.294h-1.059V84.43H229.17Z" transform="translate(-111.675 -81.163)"/><path class="a" d="M247.984,81.163h7.53v3.229h-2.325v-1.1h-2.144V85.27h2.492v1.95h-2.492v2.17h2.144v-.762h2.325V91.5h-7.53V90.127l.736-.491V83.049l-.736-.491Z" transform="translate(-120.725 -81.163)"/><g transform="translate(30.185 14.396)"><path class="a" d="M62.237,109.141v2.715q0,.234.008.39a1.9,1.9,0,0,0,.024.243.778.778,0,0,0,.156.332.8.8,0,0,0,.682.318.818.818,0,0,0,.861-.669,2.463,2.463,0,0,0,.026-.247c.007-.1.009-.224.009-.367v-2.715h1.3v2.89a2.929,2.929,0,0,1-.136.983,1.81,1.81,0,0,1-.477.695,2.583,2.583,0,0,1-3.257-.012,1.536,1.536,0,0,1-.387-.653,3.7,3.7,0,0,1-.113-1.013v-2.89Z" transform="translate(-60.935 -109.017)"/><path class="a" d="M78.246,114.155v-5.014h1.3l2.4,3.069v-3.069h1.3v5.014h-1.3l-2.4-3.069v3.069Z" transform="translate(-69.262 -109.017)"/><path class="a" d="M98.074,109.141v5.014h-1.3v-5.014Z" transform="translate(-78.173 -109.017)"/><path class="a" d="M108.576,109.141l1.208,3.049L111,109.141h1.413l-2.137,5.014h-1.01l-2.111-5.014Z" transform="translate(-83.169 -109.017)"/><path class="a" d="M128.011,110.245h-1.552v.835h1.465v1.1h-1.465v.867h1.552v1.1h-2.854v-5.014h2.854Z" transform="translate(-91.827 -109.017)"/><path class="a" d="M141.7,112.1l1.575,2.056h-1.624l-1.244-1.926v1.926h-1.3v-5.014h2.03a1.561,1.561,0,0,1,1.309.539,1.578,1.578,0,0,1,.348,1.013,1.466,1.466,0,0,1-.278.924A1.379,1.379,0,0,1,141.7,112.1Zm-1.293-.715h.247a.941.941,0,0,0,.591-.162.608.608,0,0,0,0-.915.941.941,0,0,0-.591-.162H140.4Z" transform="translate(-98.535 -109.017)"/><path class="a" d="M158.109,109.312l-.52,1.016a1.365,1.365,0,0,0-.854-.341.62.62,0,0,0-.4.127.366.366,0,0,0-.159.305.4.4,0,0,0,.244.341,4.9,4.9,0,0,0,.659.227,1.99,1.99,0,0,1,.942.523,1.263,1.263,0,0,1,.289.867,1.7,1.7,0,0,1-.516,1.319,2.045,2.045,0,0,1-1.439.471,3,3,0,0,1-1.744-.565l.559-1.049a1.75,1.75,0,0,0,1.15.51.872.872,0,0,0,.256-.036.592.592,0,0,0,.2-.1.438.438,0,0,0,.172-.355.39.39,0,0,0-.162-.325,2.049,2.049,0,0,0-.62-.253,3.057,3.057,0,0,1-.955-.4,1.226,1.226,0,0,1-.4-1,1.646,1.646,0,0,1,.471-1.221,1.669,1.669,0,0,1,1.234-.471A3.369,3.369,0,0,1,158.109,109.312Z" transform="translate(-105.995 -108.902)"/><path class="a" d="M171.479,109.141v5.014h-1.3v-5.014Z" transform="translate(-113.483 -109.017)"/><path class="a" d="M183.02,110.245v3.91h-1.3v-3.91h-1.062v-1.1H184.1v1.1Z" transform="translate(-118.524 -109.017)"/><path class="a" d="M196.52,111.745l-1.812-2.6h1.555l.948,1.367.91-1.367H199.7l-1.88,2.6v2.41h-1.3Z" transform="translate(-125.283 -109.017)"/></g></g><g transform="translate(105.362 53.534)"><path class="a" d="M207.348,115.2v.307h-.594v1.549h-.368v-1.549h-.594V115.2Zm2.005,1.856-.068-1.091c-.007-.143-.007-.321-.013-.518h-.021c-.048.163-.1.382-.157.552l-.334,1.031h-.382l-.335-1.058c-.034-.143-.088-.362-.129-.525h-.021c0,.171-.007.348-.014.518l-.068,1.091h-.355l.136-1.856h.552l.321.908c.04.143.075.28.122.471h.007c.048-.171.089-.327.13-.464l.321-.914h.532l.143,1.856Z" transform="translate(-205.792 -115.204)"/></g><g transform="translate(41.493 0)"><path class="a" d="M134.546,35.93a49.055,49.055,0,0,0-4.945-2.846V37.3a35.975,35.975,0,0,0-3.9-1.995v1.771l1.854,2.838V43.8H115V32.289q-.681-.1-1.371-.172l-4.888,7.705-4.888-7.706q-.691.077-1.371.173V43.8H89.92V39.91l1.855-2.838V35.3a35.91,35.91,0,0,0-3.9,2V33.085a49.039,49.039,0,0,0-4.944,2.846l-.21-.158L85,28.491,83.087,24.3l.05-.174a43.9,43.9,0,0,1,8.637-4.388v-.936l-1.858-2.983V12.05h11.77l4.564,7.094c.832-.05,1.662-.078,2.488-.078s1.657.028,2.49.078l4.564-7.094h11.77v3.773l-1.857,2.983v.936a43.933,43.933,0,0,1,8.636,4.388l.05.174-1.915,4.187,2.278,7.282Z" transform="translate(-82.724 -12.05)"/><g transform="translate(1.909 9.037)"><path class="a" d="M172.686,33.042a42.684,42.684,0,0,0-7.141-3.576v1.461c1.192.5,2.359,1.05,3.489,1.653l.332.177.074.123v7.18c1.04.507,2.065,1.045,3.066,1.62l-1.532-4.9Z" transform="translate(-124.472 -29.465)"/><path class="a" d="M86.4,33.041l1.711,3.742-1.532,4.9c1-.575,2.026-1.113,3.066-1.62v-7.18l.074-.123.333-.177c1.131-.6,2.3-1.153,3.491-1.653V29.464A42.718,42.718,0,0,0,86.4,33.041Z" transform="translate(-86.402 -29.464)"/></g><path class="b" d="M114.809,38.249A44.159,44.159,0,0,1,134.277,42.9V33.06a41.86,41.86,0,0,0-38.934,0V42.9A44.154,44.154,0,0,1,114.809,38.249Z" transform="translate(-88.794 -19.846)"/><path class="a" d="M113.906,33.033c-.407.035-.815.076-1.219.122v-.837l-.175.021c-.323.038-.665.084-1.014.134l-.134.019v4.75l.18-.025.434-.059v1.237c-.927.123-1.859.279-2.777.463V37.624l.482-.095.126-.024V32.752l-.187.035c-.349.066-.673.132-.991.2l-.125.026v.837c-.4.086-.8.181-1.194.28V32.058a41.6,41.6,0,0,1,6.592-1.106Zm-7.57,1.061c-.509.14-1.017.291-1.517.449V34.01l-.2.067c-.612.2-1.241.415-1.871.651l-.1.039v1.627l.213-.08c.943-.353,1.8-.643,2.6-.887l.877.572v2.335L105.093,39.9c-.948.293-1.9.623-2.823.984-.37-.232-.74-.46-1.1-.679v-.872c.485-.206.979-.4,1.474-.593v.851l.213-.079c.6-.226,1.226-.444,1.856-.646l.108-.036V36.74l-.2.067c-.927.3-1.817.618-2.654.95l-.794-.534V35.3l1.19-1.661c.918-.357,1.866-.688,2.817-.982.382.247.773.5,1.162.767Zm20.529-.135c-.4-.092-.8-.18-1.2-.261v-.837l-.127-.023c-.322-.064-.653-.126-1.007-.187l-.183-.032v4.752l.13.024.481.087v1.235c-.92-.169-1.854-.308-2.784-.415V37.065l.438.053.176.02,0-.175V32.389l-.138-.017c-.321-.04-.658-.079-1-.114l-.175-.017v.837c-.4-.039-.812-.074-1.218-.1V30.9a41.525,41.525,0,0,1,6.6.987Zm3.434.112L130.093,34v1.759l.11.035c.642.208,1.29.435,1.927.675v1.107c-.6-.225-1.218-.442-1.83-.64l-.206-.067v1.895l.11.035c.618.2,1.239.416,1.844.642l.212.081v-.55c.494.188.988.386,1.475.593v1.765a42.663,42.663,0,0,0-5.772-1.956V38.15l.418.111.2.052V33.555l-.116-.031-.5-.133V32.155a42.129,42.129,0,0,1,5.772,1.97v1.664c-.488-.2-.981-.4-1.475-.59v-.443l-.1-.038c-.617-.232-1.242-.449-1.857-.647m-13.126-1.325-.146-.422-.15.42-.587,1.633-.077.215.23-.006c.38-.009.764-.013,1.14-.012h.223l-.073-.21Zm3.481,5.412c-.883-.068-1.775-.109-2.659-.12V36.8l.361.006.226,0-.393-1.125-.11,0c-.721-.01-1.448,0-2.164.024l-.105,0-.414,1.134.235-.009.361-.012v1.239c-.84.029-1.686.084-2.522.163V36.986l.483-.045.1-.009.035-.094,2.138-6.022c.566-.017,1.14-.021,1.714-.015l2.045,5.972.035.1.1.007.529.038Z" transform="translate(-91.596 -21.069)"/></g></svg>