<svg xmlns="http://www.w3.org/2000/svg" width="141.162" height="66.525" viewBox="0 0 141.162 66.525"><defs><style>.a{fill:#fff;}.b{fill:none;stroke:#fff;}</style></defs><path class="a" d="M156.017,76.675c0-1.552.248-4.014-1.559-4.655v-.1h7.557v.1c-1.771.641-1.558,3.137-1.558,4.655V89.393c0,1.518-.213,3.98,1.558,4.621v.1h-7.557v-.1c1.771-.608,1.559-3.1,1.559-4.621Z" transform="translate(-127.675 -58.84)"/><path class="a" d="M398.836,94.116a12.08,12.08,0,0,0-3.229-6.872V76.676c0-1.552.248-4.014-1.558-4.655v-.1h7.556v.1c-1.771.641-1.558,3.137-1.558,4.655V89.393c0,1.518-.213,3.98,1.558,4.621v.1h-2.769Z" transform="translate(-296.327 -58.84)"/><path class="a" d="M516.8,76.675c0-1.552.248-4.014-1.559-4.655v-.1H522.8v.1c-1.771.641-1.558,3.137-1.558,4.655V89.393c0,1.518-.213,3.98,1.558,4.621v.1H515.24v-.1c1.771-.608,1.559-3.1,1.559-4.621Z" transform="translate(-381.635 -58.84)"/><path class="a" d="M429.089,74.931V87.648c0,3.254-.213,5.717,1.558,6.358v.1h-7.556v-.1c1.771-.608,1.517-2.608,1.558-4.622V76.667c-.041-1.676.248-4.014-1.558-4.655v-.1h6.233s7.917-.375,8,6.9c0,0,.207,5.746-4.63,5.581,0,0-3.224.041-3.266-1.819,0,0,4.01.579,3.968-3.431s-2.646-5.209-3.307-5.209a1.007,1.007,0,0,0-.992.847Z" transform="translate(-316.77 -58.831)"/><path class="a" d="M474.885,74.931V87.648c0,3.254-.212,5.717,1.559,6.358v.1h-7.556v-.1c1.771-.608,1.517-2.608,1.558-4.622V76.667c-.041-1.676.248-4.014-1.558-4.655v-.1h6.233s7.917-.375,8,6.9c0,0,.207,5.746-4.63,5.581,0,0-3.224.041-3.266-1.819,0,0,4.01.579,3.968-3.431s-2.645-5.209-3.307-5.209a1.007,1.007,0,0,0-.992.847Z" transform="translate(-349.006 -58.831)"/><path class="a" d="M275.533,86.334V76.675c0-1.551.248-4.014-1.559-4.655v-.1h7.557v.1c-1.771.641-1.559,3.137-1.559,4.655v12.47a3,3,0,0,0-1.128.712s-1.121-1.333-3.311-3.523" transform="translate(-211.804 -58.84)"/><path class="a" d="M197.317,73.987s-4.671-5.209-6.449-2.728.786,4.754,1.819,5.746,8.7,8.433,8.661,8.433a9.477,9.477,0,0,0-5.25,1.881l-7.3-7.709s-4.589-5.292-.992-8.929a6.955,6.955,0,0,1,9.508-.29Z" transform="translate(-150.182 -56.528)"/><path class="a" d="M241.019,73.987s-4.671-5.209-6.448-2.728.785,4.754,1.818,5.746,11.328,10.914,11.286,10.914a13.742,13.742,0,0,0-3.307,3.927L232.5,79.609s-4.588-5.292-.992-8.929a6.955,6.955,0,0,1,9.508-.29Z" transform="translate(-180.945 -56.528)"/><path class="a" d="M206.539,142.752c-.331-4.01.041-6.863.786-8.061a7.094,7.094,0,0,1,6.573-4.01c5.622-.041,7.937,2.15,7.937,2.15l-5.168-5.25a9.264,9.264,0,0,0-6.986,1.034,10.057,10.057,0,0,0-4.837,5.622c-1.17,3.07-.454,8.6-.454,8.6a8.707,8.707,0,0,0,2-.062Z" transform="translate(-162.67 -97.803)"/><path class="a" d="M196.274,132.162a8.687,8.687,0,0,0-5.167.579,9.462,9.462,0,0,1,.992,4.837c-.33,2.274-1.653,6.449-6.573,6.449a7.007,7.007,0,0,1-7.234-6.655c0-2.646,1.488-5.54,5.332-5.54a4.69,4.69,0,0,1,2.6.455l-4.01-3.969s-6.077.785-6.077,8.309,7.647,9.3,9.508,9.3,9.88-.62,10.748-9.343a15.641,15.641,0,0,0-.124-4.423" transform="translate(-142.939 -98.539)"/><path class="a" d="M234.165,146.328s-2.6,2.067-2.563,5c.041,3.224.248,13.27-10.624,13.27,0,0-7.028.661-10.128-5.581,0,0-.827.083-2.314.124,0,0,2.77,7.441,12.484,7.441s15.047-8.6,14.676-14.427c0,0-.115-3.812-1.509-5.788Z" transform="translate(-165.741 -111.218)"/><path class="a" d="M313.622,73.987s-4.671-5.209-6.449-2.728.785,4.754,1.819,5.746,9.591,9.178,9.55,9.178-3.142,1.24-4.051,3.183l-9.384-9.756s-4.589-5.292-.992-8.929a6.955,6.955,0,0,1,9.508-.29Z" transform="translate(-232.051 -56.528)"/><path class="a" d="M275.949,142.793s-.757-5.156.785-8.557a11.314,11.314,0,0,1,4.837-5.622,9.266,9.266,0,0,1,6.986-1.034l5.168,5.25s-2.315-2.191-7.938-2.15a7.094,7.094,0,0,0-6.573,4.01c-.743,1.2-1.53,4.092-1.2,8.1a8.49,8.49,0,0,1-.951,2.728,4.733,4.733,0,0,1-1.116-2.728" transform="translate(-213.063 -97.803)"/><path class="a" d="M309.245,148.625c.041,3.224.517,13.374-10.356,13.374,0,0-5.5.518-8.918-3.688l-1.292,1.579a13.515,13.515,0,0,0,10.252,4.093c9.715,0,15.048-8.6,14.675-14.427,0,0-.073-3.895-1.467-5.87l-.682-1.034a4.632,4.632,0,0,0-4.092,1.736s1.881,2.707,1.881,4.2Z" transform="translate(-222.155 -108.616)"/><path class="a" d="M343.7,145.337a8.549,8.549,0,0,1-4.483-7.734c0-7.524,6.077-8.309,6.077-8.309l4.01,3.969a4.691,4.691,0,0,0-2.6-.455c-3.845,0-5.333,2.894-5.333,5.539a6.918,6.918,0,0,0,2.839,5.288Z" transform="translate(-257.732 -99.227)"/><path class="a" d="M363.309,85.768c.041,0-7.627-7.772-8.661-8.764s-3.6-3.266-1.819-5.746,6.449,2.728,6.449,2.728v-3.6a6.955,6.955,0,0,0-9.508.289c-3.6,3.638.992,8.929.992,8.929l7.3,8.04a38.043,38.043,0,0,1,2.46,3.2l.124.165a9.469,9.469,0,0,1,.992,4.837c-.321,2.208-1.578,6.212-6.159,6.439a13.036,13.036,0,0,1-.827,1.808l-.019.066a4.981,4.981,0,0,0,.556.037c1.86,0,9.88-.62,10.748-9.343a15.647,15.647,0,0,0-.124-4.423,12.648,12.648,0,0,0-2.439-4.609Z" transform="translate(-264.189 -56.528)"/><path class="a" d="M64.445,71.91h7.606l5.377,14.339L83.3,71.91h6.945s-2.315.5-2.563,2.563c-.128,1.064,0,17.28,0,17.28s1.282,2.4,2.273,2.4h-8.8a2.792,2.792,0,0,0,2.211-2.666c.028-1.007,0-16.443,0-16.443l-7.5,19.109h-.166L68.45,74.793s-.145,15.647,0,16.629c.294,1.984,3.064,2.687,3.064,2.687H64.569a3.222,3.222,0,0,0,2.191-3.018c.112-1.683,0-13.939,0-15.817a3.205,3.205,0,0,0-2.315-3.364" transform="translate(-64.313 -58.833)"/><line class="b" x2="140.936" transform="translate(0 9.55)"/><path class="a" d="M87.377,37.373h-.7V34.839c0-.608-.184-.879-.727-.879A1.427,1.427,0,0,0,85,34.3v3.07h-.687v-4h.5a1.5,1.5,0,0,1,.128.536h.048a1.077,1.077,0,0,1,1.135-.632,1.116,1.116,0,0,1,1.159.664h.056a1.1,1.1,0,0,1,1.151-.664c.783,0,1.255.368,1.255,1.311v2.782h-.688V34.839c0-.608-.2-.879-.735-.879a1.427,1.427,0,0,0-.943.344Z" transform="translate(-78.3 -31.641)"/><path class="a" d="M109.258,28.263a.444.444,0,1,1-.887,0,.444.444,0,1,1,.887,0m-.1,5.252h-.687v-4h.688Z" transform="translate(-95.233 -27.783)"/><path class="a" d="M118.624,33.776a.6.6,0,0,1-.168.392,1.563,1.563,0,0,0-.9-.28c-.5,0-.711.208-.711.512,0,.759,1.847.592,1.847,1.831,0,.775-.512,1.239-1.487,1.239-.456,0-1.143-.1-1.143-.544a.536.536,0,0,1,.152-.392,1.853,1.853,0,0,0,1.007.32c.472,0,.751-.192.751-.528,0-.759-1.839-.544-1.839-1.879,0-.688.464-1.167,1.463-1.167.44,0,1.023.128,1.023.5" transform="translate(-100.65 -31.641)"/><path class="a" d="M131.205,33.776a.6.6,0,0,1-.168.392,1.565,1.565,0,0,0-.9-.28c-.5,0-.712.208-.712.512,0,.759,1.847.592,1.847,1.831,0,.775-.512,1.239-1.487,1.239-.456,0-1.143-.1-1.143-.544a.537.537,0,0,1,.152-.392,1.853,1.853,0,0,0,1.007.32c.472,0,.752-.192.752-.528,0-.759-1.839-.544-1.839-1.879,0-.688.463-1.167,1.463-1.167.44,0,1.024.128,1.024.5" transform="translate(-109.506 -31.641)"/><path class="a" d="M142.953,28.263a.444.444,0,1,1-.887,0,.444.444,0,1,1,.887,0m-.1,5.252h-.688v-4h.688Z" transform="translate(-118.952 -27.783)"/><path class="a" d="M152.319,33.776a.6.6,0,0,1-.168.392,1.564,1.564,0,0,0-.9-.28c-.5,0-.711.208-.711.512,0,.759,1.847.592,1.847,1.831,0,.775-.512,1.239-1.487,1.239-.456,0-1.143-.1-1.143-.544a.536.536,0,0,1,.152-.392,1.855,1.855,0,0,0,1.007.32c.472,0,.751-.192.751-.528,0-.759-1.839-.544-1.839-1.879,0-.688.464-1.167,1.463-1.167.44,0,1.023.128,1.023.5" transform="translate(-124.369 -31.641)"/><path class="a" d="M164.9,33.776a.6.6,0,0,1-.168.392,1.564,1.564,0,0,0-.9-.28c-.5,0-.711.208-.711.512,0,.759,1.847.592,1.847,1.831,0,.775-.512,1.239-1.487,1.239-.456,0-1.143-.1-1.143-.544a.536.536,0,0,1,.152-.392,1.853,1.853,0,0,0,1.007.32c.472,0,.751-.192.751-.528,0-.759-1.839-.544-1.839-1.879,0-.688.464-1.167,1.463-1.167.44,0,1.023.128,1.023.5" transform="translate(-133.225 -31.641)"/><path class="a" d="M176.649,28.263a.444.444,0,1,1-.887,0,.444.444,0,1,1,.887,0m-.1,5.252h-.688v-4h.688Z" transform="translate(-142.671 -27.783)"/><path class="a" d="M185.331,38.948h-.688V33.376h.5a1.853,1.853,0,0,1,.112.568h.056a1.084,1.084,0,0,1,1.143-.664c1.031,0,1.455.759,1.455,1.9,0,1.447-.624,2.286-1.87,2.286a2.839,2.839,0,0,1-.712-.072ZM186,36.853c.767,0,1.191-.536,1.191-1.631,0-.783-.264-1.263-.943-1.263a1.393,1.393,0,0,0-.911.352v2.422a1.493,1.493,0,0,0,.664.12" transform="translate(-148.923 -31.641)"/><path class="a" d="M201.5,38.948h-.688V33.376h.5a1.836,1.836,0,0,1,.112.568h.056a1.085,1.085,0,0,1,1.143-.664c1.031,0,1.455.759,1.455,1.9,0,1.447-.624,2.286-1.871,2.286a2.83,2.83,0,0,1-.711-.072Zm.663-2.095c.767,0,1.191-.536,1.191-1.631,0-.783-.264-1.263-.943-1.263a1.392,1.392,0,0,0-.911.352v2.422a1.491,1.491,0,0,0,.663.12" transform="translate(-160.308 -31.641)"/><path class="a" d="M217.527,28.263a.444.444,0,1,1-.887,0,.444.444,0,1,1,.887,0m-.1,5.252h-.688v-4h.688Z" transform="translate(-171.446 -27.783)"/><path class="a" d="M233.234,27.745h.688v5.732h-.512a1.589,1.589,0,0,1-.12-.56h-.056a1.068,1.068,0,0,1-1.127.656c-1.031,0-1.455-.775-1.455-1.927,0-1.439.632-2.262,1.887-2.262a3.293,3.293,0,0,1,.7.072ZM232.555,30c-.735,0-1.175.5-1.175,1.615,0,.783.256,1.271.943,1.271a1.354,1.354,0,0,0,.911-.352V30.127a1.587,1.587,0,0,0-.68-.128" transform="translate(-181.309 -27.745)"/><path class="a" d="M248.736,36.813a1.931,1.931,0,0,0,1.055-.288.59.59,0,0,1,.144.368c0,.376-.624.576-1.287.576-1.223,0-1.823-.711-1.823-2.079,0-1.287.656-2.11,1.719-2.11a1.429,1.429,0,0,1,1.471,1.623,3.446,3.446,0,0,1-.04.448h-2.43c.024,1.063.44,1.463,1.191,1.463m.56-1.991c0-.616-.288-.951-.775-.951-.424,0-.823.3-.943.951Z" transform="translate(-192.693 -31.641)"/><path class="a" d="M262.821,37.6h-.831l-1.423-4h.783l1.063,3.3,1.063-3.3h.775Z" transform="translate(-202.367 -31.869)"/><path class="a" d="M277.57,36.813a1.933,1.933,0,0,0,1.056-.288.59.59,0,0,1,.144.368c0,.376-.623.576-1.287.576-1.223,0-1.823-.711-1.823-2.079,0-1.287.656-2.11,1.719-2.11a1.429,1.429,0,0,1,1.471,1.623,3.446,3.446,0,0,1-.04.448h-2.43c.024,1.063.439,1.463,1.191,1.463m.56-1.991c0-.616-.288-.951-.775-.951-.424,0-.823.3-.944.951Z" transform="translate(-212.99 -31.641)"/><rect class="a" width="0.687" height="5.716" transform="translate(67.378 0.016)"/><path class="a" d="M302.459,35.311c0,1.431-.68,2.158-1.766,2.158-1.024,0-1.679-.616-1.679-2.086,0-1.375.728-2.1,1.782-2.1,1.039,0,1.663.688,1.663,2.031m-2.726.032c0,1.1.432,1.511.991,1.511.616,0,1.007-.448,1.007-1.5,0-1-.392-1.455-.959-1.455-.608,0-1.039.448-1.039,1.447" transform="translate(-229.43 -31.641)"/><path class="a" d="M316.467,38.948h-.687V33.376h.5a1.819,1.819,0,0,1,.112.568h.056a1.084,1.084,0,0,1,1.143-.664c1.032,0,1.455.759,1.455,1.9,0,1.447-.623,2.286-1.87,2.286a2.833,2.833,0,0,1-.711-.072Zm.664-2.095c.767,0,1.191-.536,1.191-1.631,0-.783-.264-1.263-.943-1.263a1.393,1.393,0,0,0-.911.352v2.422a1.492,1.492,0,0,0,.664.12" transform="translate(-241.232 -31.641)"/><path class="a" d="M335.014,37.373h-.7V34.839c0-.608-.184-.879-.727-.879a1.427,1.427,0,0,0-.943.344v3.07h-.688v-4h.5a1.51,1.51,0,0,1,.128.536h.048a1.078,1.078,0,0,1,1.135-.632,1.117,1.117,0,0,1,1.159.664h.056a1.1,1.1,0,0,1,1.151-.664c.783,0,1.255.368,1.255,1.311v2.782h-.688V34.839c0-.608-.2-.879-.735-.879a1.427,1.427,0,0,0-.944.344Z" transform="translate(-252.616 -31.641)"/><path class="a" d="M357.19,36.813a1.933,1.933,0,0,0,1.056-.288.59.59,0,0,1,.144.368c0,.376-.623.576-1.287.576-1.223,0-1.823-.711-1.823-2.079,0-1.287.656-2.11,1.719-2.11a1.429,1.429,0,0,1,1.471,1.623,3.4,3.4,0,0,1-.04.448H356c.024,1.063.44,1.463,1.191,1.463m.56-1.991c0-.616-.288-.951-.775-.951-.424,0-.823.3-.944.951Z" transform="translate(-269.036 -31.641)"/><path class="a" d="M371.87,37.373h-.687v-4h.5a1.5,1.5,0,0,1,.128.536h.048a1.125,1.125,0,0,1,1.167-.632,1.144,1.144,0,0,1,1.279,1.311v2.782h-.687V34.815c0-.592-.224-.863-.751-.863a1.483,1.483,0,0,0-.991.376Z" transform="translate(-280.23 -31.641)"/><path class="a" d="M387.291,31.532h1.151v.576h-1.151v2.214c0,.448.192.64.527.64a1.119,1.119,0,0,0,.672-.208.517.517,0,0,1,.176.376c0,.288-.352.5-.943.5-.783,0-1.119-.392-1.119-1.207v-2.31H386v-.576h.6v-.36c0-.36.176-.512.48-.512a.575.575,0,0,1,.208.024Z" transform="translate(-290.664 -29.798)"/><path class="a" d="M406.678,34.959V34.7c0-.5-.256-.791-.831-.791a2.155,2.155,0,0,0-1.143.336.512.512,0,0,1-.168-.376c0-.376.664-.592,1.415-.592a1.246,1.246,0,0,1,1.415,1.415v2.678h-.5a1.457,1.457,0,0,1-.128-.512h-.048a1.1,1.1,0,0,1-1.111.608,1.123,1.123,0,0,1-1.247-1.215c0-.9.623-1.335,1.855-1.335a3,3,0,0,1,.487.04m-1.623,1.255c0,.344.216.608.751.608a1.2,1.2,0,0,0,.871-.368v-.967a3.185,3.185,0,0,0-.5-.04c-.768,0-1.127.248-1.127.767" transform="translate(-303.568 -31.641)"/><path class="a" d="M422.938,33.6h.688v4h-.5a1.544,1.544,0,0,1-.128-.536h-.048a1.32,1.32,0,0,1-2.446-.68V33.6h.688v2.542c0,.6.232.871.767.871a1.509,1.509,0,0,0,.975-.344Z" transform="translate(-314.952 -31.869)"/><path class="a" d="M436.753,31.532H437.9v.576h-1.151v2.214c0,.448.192.64.528.64a1.118,1.118,0,0,0,.671-.208.516.516,0,0,1,.176.376c0,.288-.351.5-.943.5-.783,0-1.119-.392-1.119-1.207v-2.31h-.6v-.576h.6v-.36c0-.36.176-.512.48-.512a.571.571,0,0,1,.208.024Z" transform="translate(-325.481 -29.798)"/><path class="a" d="M448.506,33.515V27.8h.688V29.15a4.029,4.029,0,0,1-.072.919h.056a1.13,1.13,0,0,1,1.167-.64,1.15,1.15,0,0,1,1.279,1.319v2.766h-.688V30.989c0-.6-.232-.879-.767-.879a1.554,1.554,0,0,0-.975.344v3.062Z" transform="translate(-334.66 -27.783)"/><path class="a" d="M467.476,35.311c0,1.431-.68,2.158-1.767,2.158-1.023,0-1.679-.616-1.679-2.086,0-1.375.727-2.1,1.783-2.1,1.039,0,1.663.688,1.663,2.031m-2.726.032c0,1.1.432,1.511.991,1.511.616,0,1.007-.448,1.007-1.5,0-1-.392-1.455-.959-1.455-.608,0-1.039.448-1.039,1.447" transform="translate(-345.587 -31.641)"/><path class="a" d="M481.273,33.4a2.02,2.02,0,0,1,.128.616h.048a.842.842,0,0,1,.887-.711c.472,0,.688.168.688.432a.682.682,0,0,1-.176.456.941.941,0,0,0-.616-.176.845.845,0,0,0-.775.44v2.95h-.688V33.4Z" transform="translate(-357.37 -31.66)"/><path class="a" d="M492.564,28.263a.444.444,0,1,1-.887,0,.444.444,0,1,1,.887,0m-.1,5.252h-.688v-4h.688Z" transform="translate(-365.049 -27.783)"/><path class="a" d="M500.064,31.532h1.151v.576h-1.151v2.214c0,.448.192.64.528.64a1.119,1.119,0,0,0,.672-.208.517.517,0,0,1,.176.376c0,.288-.352.5-.944.5-.784,0-1.119-.392-1.119-1.207v-2.31h-.6v-.576h.6v-.36c0-.36.176-.512.48-.512a.572.572,0,0,1,.208.024Z" transform="translate(-370.047 -29.798)"/><path class="a" d="M509.585,33.6h.791l1.063,3.254,1.056-3.254h.759l-1.375,3.789c-.44,1.247-1.047,1.863-1.919,1.863-.3,0-.431-.136-.431-.368a.827.827,0,0,1,.04-.24,1.4,1.4,0,0,0,1.495-.983Z" transform="translate(-377.615 -31.869)"/><path class="a" d="M224.709,238.764H224V236.5c0-.54-.185-.783-.733-.783a1.552,1.552,0,0,0-.95.306v2.739h-.693V235.2h.5a1.245,1.245,0,0,1,.129.479h.049c.153-.323.467-.565,1.143-.565a1.149,1.149,0,0,1,1.167.592h.057a1.131,1.131,0,0,1,1.159-.592c.789,0,1.263.328,1.263,1.169v2.482H226.4V236.5c0-.54-.2-.783-.741-.783a1.556,1.556,0,0,0-.95.306Z" transform="translate(-174.955 -173.714)"/><path class="a" d="M245.388,230.637a.449.449,0,0,1-.893,0,.448.448,0,0,1,.893,0m-.1,4.685H244.6v-3.566h.693Z" transform="translate(-191.053 -170.273)"/><path class="a" d="M253.462,235.555a.5.5,0,0,1-.169.349,1.7,1.7,0,0,0-.9-.25c-.5,0-.717.185-.717.457,0,.676,1.86.527,1.86,1.633,0,.693-.515,1.1-1.5,1.1-.458,0-1.151-.093-1.151-.486a.451.451,0,0,1,.153-.349,2.032,2.032,0,0,0,1.015.285c.475,0,.756-.171.756-.47,0-.678-1.851-.486-1.851-1.676,0-.613.466-1.042,1.473-1.042.443,0,1.031.115,1.031.443" transform="translate(-195.551 -173.714)"/><path class="a" d="M264.772,235.555a.5.5,0,0,1-.169.349,1.7,1.7,0,0,0-.9-.25c-.5,0-.716.185-.716.457,0,.676,1.861.527,1.861,1.633,0,.693-.516,1.1-1.5,1.1-.459,0-1.151-.093-1.151-.486a.452.452,0,0,1,.153-.349,2.032,2.032,0,0,0,1.015.285c.476,0,.756-.171.756-.47,0-.678-1.851-.486-1.851-1.676,0-.613.467-1.042,1.473-1.042.442,0,1.031.115,1.031.443" transform="translate(-203.513 -173.714)"/><path class="a" d="M275.244,230.637a.449.449,0,0,1-.894,0,.448.448,0,0,1,.894,0m-.1,4.685h-.693v-3.566h.693Z" transform="translate(-212.069 -170.273)"/><path class="a" d="M283.318,235.555a.509.509,0,0,1-.168.349,1.708,1.708,0,0,0-.9-.25c-.5,0-.717.185-.717.457,0,.676,1.859.527,1.859,1.633,0,.693-.515,1.1-1.5,1.1-.46,0-1.152-.093-1.152-.486a.453.453,0,0,1,.153-.349,2.033,2.033,0,0,0,1.014.285c.476,0,.757-.171.757-.47,0-.678-1.852-.486-1.852-1.676,0-.613.468-1.042,1.474-1.042.442,0,1.031.115,1.031.443" transform="translate(-216.567 -173.714)"/><path class="a" d="M294.629,235.555a.506.506,0,0,1-.168.349,1.7,1.7,0,0,0-.9-.25c-.5,0-.716.185-.716.457,0,.676,1.86.527,1.86,1.633,0,.693-.516,1.1-1.5,1.1-.459,0-1.152-.093-1.152-.486a.45.45,0,0,1,.153-.349,2.031,2.031,0,0,0,1.014.285c.475,0,.757-.171.757-.47,0-.678-1.852-.486-1.852-1.676,0-.613.467-1.042,1.474-1.042.442,0,1.03.115,1.03.443" transform="translate(-224.53 -173.714)"/><path class="a" d="M305.1,230.637a.449.449,0,0,1-.895,0,.449.449,0,0,1,.895,0m-.1,4.685h-.692v-3.566H305Z" transform="translate(-233.084 -170.273)"/><path class="a" d="M312.487,240.167H311.8V235.2h.506a1.5,1.5,0,0,1,.114.507h.055a1.117,1.117,0,0,1,1.153-.592c1.037,0,1.464.678,1.464,1.7,0,1.29-.629,2.038-1.885,2.038a3.186,3.186,0,0,1-.716-.064Zm.667-1.868c.773,0,1.2-.476,1.2-1.454,0-.7-.265-1.127-.949-1.127a1.507,1.507,0,0,0-.918.313v2.161a1.689,1.689,0,0,0,.667.107" transform="translate(-238.427 -173.714)"/><path class="a" d="M327.416,240.167h-.692V235.2h.506a1.444,1.444,0,0,1,.112.507h.057a1.116,1.116,0,0,1,1.151-.592c1.039,0,1.466.678,1.466,1.7,0,1.29-.626,2.038-1.885,2.038a3.2,3.2,0,0,1-.716-.064Zm.667-1.868c.774,0,1.2-.476,1.2-1.454,0-.7-.267-1.127-.95-1.127a1.506,1.506,0,0,0-.918.313v2.161a1.687,1.687,0,0,0,.667.107" transform="translate(-248.936 -173.714)"/><path class="a" d="M342.188,230.637a.449.449,0,0,1-.894,0,.448.448,0,0,1,.894,0m-.1,4.685H341.4v-3.566h.693Z" transform="translate(-259.192 -170.273)"/><path class="a" d="M348.677,245.123a.455.455,0,0,1-.5.457.454.454,0,1,1,0-.905.454.454,0,0,1,.5.449" transform="translate(-263.692 -180.445)"/><path class="a" d="M356.836,236.923a1.682,1.682,0,0,1-1.779,1.925c-1.031,0-1.692-.549-1.692-1.861a1.693,1.693,0,0,1,1.8-1.875c1.047,0,1.674.613,1.674,1.811m-2.746.029c0,.983.435,1.347,1,1.347.62,0,1.015-.4,1.015-1.341,0-.892-.4-1.3-.966-1.3-.612,0-1.047.4-1.047,1.292" transform="translate(-267.689 -173.714)"/><path class="a" d="M369.377,235.221a1.664,1.664,0,0,1,.128.55h.048a.831.831,0,0,1,.894-.635c.474,0,.692.151.692.386a.577.577,0,0,1-.178.407,1.02,1.02,0,0,0-.619-.158.881.881,0,0,0-.781.391v2.632h-.692v-3.573Z" transform="translate(-278.602 -173.73)"/><path class="a" d="M377.785,238.115a.6.6,0,0,1,.541-.586,1.114,1.114,0,0,1-.9-1.133c0-.856.654-1.284,1.635-1.284a2.033,2.033,0,0,1,.611.085h1.3a.725.725,0,0,1,.025.228c0,.193-.073.329-.346.308l-.258-.023a1.071,1.071,0,0,1,.192.642c0,.686-.474,1.263-1.578,1.263a2.59,2.59,0,0,1-.409-.029.4.4,0,0,0-.17.349c0,.194.178.308.4.308h1.087c.62,0,.974.336.974.806,0,.684-.6,1.19-1.885,1.19-1.063,0-1.681-.285-1.681-.942a.7.7,0,0,1,.708-.683.574.574,0,0,1-.25-.5m.224,1.054c0,.4.4.578,1.039.578.7,0,1.128-.237,1.128-.6,0-.191-.145-.37-.491-.37h-.854a1.925,1.925,0,0,1-.579-.071.5.5,0,0,0-.243.463m.131-2.789c0,.451.306.735.884.735s.871-.3.871-.785c0-.434-.306-.726-.862-.726-.595,0-.893.277-.893.776" transform="translate(-284.557 -173.714)"/></svg>