<svg xmlns="http://www.w3.org/2000/svg" width="140.353" height="56.55" viewBox="0 0 140.353 56.55"><defs><style>.a{fill:#63666a;}.b,.c{fill:#fff;}.c{stroke:#fff;stroke-miterlimit:10;stroke-width:0.291px;}</style></defs><g transform="translate(-347 -1054.1)"><g transform="translate(347 1054.1)"><path class="a" d="M0-8.07V48.48L140.353,38.064V-8.07Z" transform="translate(0 8.07)"/><g transform="translate(7.812 13.916)"><path class="b" d="M30.949,29.54,31.9,27.3a8.157,8.157,0,0,0-4.512-1.4c-2.768,0-4.626,1.479-4.626,3.83,0,4.778,6.712,3.185,6.712,5.991,0,.948-.8,1.479-2.124,1.479a6.9,6.9,0,0,1-4.323-1.972L22,37.39a7.794,7.794,0,0,0,5.271,2.161c2.73,0,4.778-1.441,4.778-3.982,0-4.816-6.674-3.337-6.674-6.067,0-.834.72-1.251,1.858-1.251a7.4,7.4,0,0,1,3.716,1.289m3.83-3.527V39.437h2.2V30.6l3.678,5.612h1.555L45.89,30.6v8.835h2.161V26.014h-2.01l-4.588,6.75-4.664-6.75ZM60.868,39.437h2.579L58.024,26.014H55.559l-5.5,13.424h2.465l1.1-2.844H59.73ZM54.5,34.394l2.2-5.65,2.161,5.65Zm21.8,5.043-3.109-4.816a3.876,3.876,0,0,0,2.465-3.982c0-2.958-1.82-4.626-5.081-4.626h-5.2V39.437h2.389V35.115h2.806c.152,0,2.616,4.323,2.616,4.323ZM67.769,28.251h2.806c1.782,0,2.768.8,2.768,2.465s-.986,2.124-2.768,2.124H67.769Zm9.556-2.237v2.275h3.868V39.437h2.389V28.289H87.45V26.014Zm11.641,0v2.237h5.726L87.981,39.437H99.395V37.2H92.683l6.674-11.186Z" transform="translate(-21.469 -25.9)"/><path class="b" d="M254.724,39.7l-3.451-11.641L247.785,39.7H246.5l-4.1-13.2h1.289l3.489,11.983L250.629,26.5h1.251l3.489,11.983L258.819,26.5h1.251l-4.133,13.2Zm7.243,0V26.5H270.2v1.213h-7.053v4.74h6.295v1.176h-6.295v4.892h7.281v1.213h-8.456ZM273.949,32.3h3.868c1.744,0,2.768-.834,2.768-2.351,0-1.441-1.024-2.275-2.768-2.275h-3.868Zm0,6.181h3.944c2.086,0,3.261-.91,3.261-2.541,0-1.555-1.213-2.465-3.261-2.465h-3.944ZM272.774,39.7V26.5h5.119c2.465,0,3.944,1.213,3.944,3.261a3.1,3.1,0,0,1-.531,1.82,2.579,2.579,0,0,1-1.479,1.024,2.193,2.193,0,0,0-.531.19c.379.114.758.19,1.1.3a2.727,2.727,0,0,1,.8.455,2.686,2.686,0,0,1,.986,1.441,4.227,4.227,0,0,1,.19,1.176c0,2.2-1.631,3.527-4.4,3.527Z" transform="translate(-162.036 -26.272)"/><g transform="translate(0 19.529)"><path class="c" d="M29.7,77.6l-2.01,6.333h-.91L25.15,78.889,23.52,83.933h-.91L20.6,77.6h.872L23.1,82.757,24.809,77.6h.8l1.668,5.157L28.942,77.6Z" transform="translate(-20.6 -77.524)"/><path class="c" d="M51.861,83.136v.8H47.5V77.6h4.247v.8H48.372V80.33h3.034v.758H48.372v2.048Z" transform="translate(-37.3 -77.524)"/><path class="c" d="M68.8,77.6h2.541a3.149,3.149,0,1,1,0,6.295H68.8Zm2.5,5.536a2.389,2.389,0,1,0,0-4.778H69.672V83.1H71.3Z" transform="translate(-50.523 -77.524)"/><path class="c" d="M86.4,80.623a3.2,3.2,0,1,1,3.223,3.223A3.128,3.128,0,0,1,86.4,80.623Zm5.536,0a2.352,2.352,0,1,0-2.351,2.427A2.312,2.312,0,0,0,91.936,80.623Z" transform="translate(-62.243 -77.4)"/><path class="c" d="M120.4,77.538l-2.01,6.295h-.91l-1.631-5.043-1.631,5.043h-.91L111.3,77.5h.872l1.631,5.157,1.706-5.157h.8l1.668,5.157,1.669-5.157h.758Z" transform="translate(-78.027 -77.462)"/><path class="c" d="M142.561,83.136v.8H138.2V77.6h4.247v.8h-3.375V80.33h3.034v.758h-3.034v2.048Z" transform="translate(-95.001 -77.524)"/><path class="c" d="M158.695,82.188c0,1.1-.8,1.706-2.313,1.706H153.5V77.6h2.692c1.4,0,2.161.607,2.161,1.631a1.507,1.507,0,0,1-.8,1.4A1.5,1.5,0,0,1,158.695,82.188Zm-4.323-3.868v2.01h1.782c.872,0,1.365-.341,1.365-1.024s-.493-1.024-1.365-1.024h-1.782Zm3.451,3.792c0-.72-.531-1.062-1.479-1.062h-1.972v2.124h1.972C157.292,83.174,157.823,82.871,157.823,82.112Z" transform="translate(-104.692 -77.524)"/><path class="c" d="M170.7,86.9h7.736v.607H170.7Z" transform="translate(-115.614 -83.298)"/><path class="c" d="M194.423,81.733v2.2h-.834v-2.2L191.2,77.6h.91l1.934,3.337,1.934-3.337h.834Z" transform="translate(-128.553 -77.524)"/><path class="c" d="M206.5,80.623a3.2,3.2,0,1,1,3.223,3.223A3.128,3.128,0,0,1,206.5,80.623Zm5.536,0a2.352,2.352,0,1,0-2.351,2.427A2.312,2.312,0,0,0,212.036,80.623Z" transform="translate(-138.25 -77.4)"/><path class="c" d="M226.8,81.1V77.5h.872v3.564c0,1.4.607,2.048,1.706,2.048s1.706-.645,1.706-2.048V77.5h.834v3.6c0,1.82-.948,2.806-2.541,2.806C227.748,83.908,226.8,82.96,226.8,81.1Z" transform="translate(-151.07 -77.462)"/><path class="c" d="M251,77.6h2.541a3.149,3.149,0,1,1,0,6.295H251Zm2.5,5.536a2.389,2.389,0,1,0,0-4.778h-1.631V83.1H253.5Z" transform="translate(-166.398 -77.524)"/><path class="c" d="M268.6,80.623a3.2,3.2,0,1,1,3.223,3.223A3.128,3.128,0,0,1,268.6,80.623Zm5.536,0a2.352,2.352,0,1,0-2.351,2.427A2.312,2.312,0,0,0,274.136,80.623Z" transform="translate(-177.551 -77.4)"/><path class="c" d="M295.1,77.6h.872v5.536h3.261v.8H295.1Z" transform="translate(-194.753 -77.524)"/><path class="c" d="M308.8,77.6h.872v6.333H308.8Z" transform="translate(-203.258 -77.524)"/><path class="c" d="M316.772,78.358v2.2h3.034v.8h-3.034v2.541H315.9V77.6h4.247v.8h-3.375Z" transform="translate(-207.665 -77.524)"/><path class="c" d="M334.861,83.136v.8H330.5V77.6h4.247v.8h-3.375V80.33h3.034v.758h-3.034v2.048Z" transform="translate(-216.729 -77.524)"/><path class="c" d="M344.7,91.707a.569.569,0,0,1,.569-.607.592.592,0,0,1,.569.607.568.568,0,0,1-.569.607A.548.548,0,0,1,344.7,91.707Z" transform="translate(-225.544 -85.905)"/></g></g></g></g></svg>