<svg xmlns="http://www.w3.org/2000/svg" width="140.601" height="52.081" viewBox="0 0 140.601 52.081"><defs><style>.a{fill:#c5c6cc;}.b{fill:#2d3047;}.c{fill:#63666a;}</style></defs><g transform="translate(0 0)"><g transform="translate(0 3.703)"><path class="a" d="M12.186,167.675s-4.4,1.576-7.3-3.318a4.093,4.093,0,0,0,2.406,5.226c3.732,1.574,5.888,1.16,5.888,1.16S11.522,170.578,12.186,167.675Z" transform="translate(-3.56 -146.938)"/><path class="a" d="M84.763,187.2s5.558,3.731,9.041-2.322c0,0,.248,4.561-2.986,5.39s-7.216.166-8.212-1.658C82.606,188.605,84.763,188.273,84.763,187.2Z" transform="translate(-55.981 -160.735)"/><path class="a" d="M27.467,163.34s-.13,4.777,6.968,5.807c5.142.747,6.636-.414,6.636-.414s1.939,2.918,4.976,2.074a4.958,4.958,0,0,0,2.9-2.489s-.747,5.143-3.484,5.06a16.132,16.132,0,0,1-5.225-1.162s-8.013,2.773-12.277-2.157C25.311,166.991,27.467,163.34,27.467,163.34Z" transform="translate(-18.344 -146.254)"/><path class="b" d="M43.69,128.171a6.26,6.26,0,0,0-3.152-5.407,10.45,10.45,0,0,0-15.72-8.926,7.04,7.04,0,0,0-9.8-1.217,12.1,12.1,0,0,0-1.313-.071,12.335,12.335,0,0,0-1.467.088,11.311,11.311,0,0,0-6.913,3.4,8.407,8.407,0,0,0-2.369,6.82A7.925,7.925,0,0,0,3.179,124a6.833,6.833,0,0,0-1.874,4.56c-.039,4.07,3.877,7.221,8.727,7.527h.1c.283,0,.564-.074.842-.1.263.215.541.391.826.6a12.389,12.389,0,0,0,7.17,2.131,13.5,13.5,0,0,0,4.207-.671,6.458,6.458,0,0,0,3.438,1.225,7.605,7.605,0,0,0,13.735-4.509,7.677,7.677,0,0,0-.081-1.1A6.219,6.219,0,0,0,43.69,128.171Zm-4.936,4.291c-2.114.6-3.276-.31-3.524.126-.2.342,1.749,1.379,3.336,1.487a5.687,5.687,0,0,1,.044.689,5.867,5.867,0,0,1-9.823,4.334,4.02,4.02,0,0,0,1.708-.812c1.936-1.654,1.861-5.572,1.329-5.437s.048,4.406-4.806,4.7a4.5,4.5,0,0,1-3.485-1.5,11.368,11.368,0,0,1-4.561.921c-4.054,0-7.491-1.969-8.432-4.659-.847-2.421.45-4.631.024-4.817s-2.532,2.994-.956,6.722c-3.689-.218-6.588-2.695-6.56-5.69a4.855,4.855,0,0,1,1.233-3.14c.964,1.175,2.582,2.211,2.914,1.713s-1.286-.83-1.982-2.588a6.16,6.16,0,0,1-.531-1.858c-.486-3.992,2.989-7.7,7.763-8.28a10.459,10.459,0,0,1,1.256-.076,10.047,10.047,0,0,1,1.852.17,5.305,5.305,0,0,1,7.568.068,12.545,12.545,0,0,0-1.5-.091,9.287,9.287,0,0,0-1.574.1c-7.334,1.255-8.111,7.579-7.272,7.849s0-4.914,7.482-6.121a8.508,8.508,0,0,1,1.364-.083,10.87,10.87,0,0,1,2.544.3c1.778.493,3.561,2.194,3.894,2.027s-.705-1.783-2.762-2.917a8.7,8.7,0,0,1,13.442,8.285c-.187,1.931-1.058,3.092-.6,3.3s1.451-1.286,1.887-2.684a4.478,4.478,0,0,1-1.267,7.97Z" transform="translate(-1.305 -111.167)"/><path class="a" d="M50.422,155.128a5.239,5.239,0,0,0,3.042,1.485,5.661,5.661,0,0,0,3.85-.817,2.85,2.85,0,0,0,.579.612,4.481,4.481,0,0,0,3.645.812c2.638-.531,3.187-3.337,2.911-3.444s-.752,1.443-3.33,1.792a3.6,3.6,0,0,1-1.672-.236c-2.288-.9-2.288-2.71-2.66-2.758-.21-.028-.314.7-.148,1.57a3.929,3.929,0,0,1-2.921.749,4.067,4.067,0,0,1-2.648-1.279c-1.29-1.518-.873-3.465-1.1-3.508C49.7,150.051,48.419,153.067,50.422,155.128Z" transform="translate(-33.594 -137.353)"/></g><g transform="translate(28.741 45.882)"><path class="a" d="M95.881,247.935s-2.24,2.158-4.231.415c0,0,1.162,2.9,2.738,2.489S95.881,247.935,95.881,247.935Z" transform="translate(-90.803 -245.323)"/><g transform="translate(0 0)"><path class="b" d="M92.164,239.959a3.1,3.1,0,1,0,3.1,3.1A3.1,3.1,0,0,0,92.164,239.959Zm0,4.457a1.358,1.358,0,1,1,1.358-1.358A1.359,1.359,0,0,1,92.164,244.416Z" transform="translate(-89.065 -239.959)"/></g></g><g transform="translate(35.824 35.983)"><path class="a" d="M116.77,226.659s.995,3.485,5.475,1.328c0,0-.912,4.4-3.483,3.151S114.448,228.237,116.77,226.659Z" transform="translate(-114.049 -221.116)"/><path class="b" d="M121.984,214.919a2.711,2.711,0,0,0-1.46-2.344,2.51,2.51,0,0,0-1.189-.3,2.768,2.768,0,0,0-.677.087,4.122,4.122,0,0,0-7.964,1.508,4.112,4.112,0,0,0,.9,2.581,2.2,2.2,0,0,0-.195.959c.059,1.788,1.868,3.192,4.252,3.192a4.7,4.7,0,0,0,3.408-1.26,2.384,2.384,0,0,0,.662-1.468A3.069,3.069,0,0,0,121.984,214.919Zm-2.606,1.176c-.227-.473-.5-.856-.637-.856h0c-.358,0,.92,3.369-3.081,3.369h-.018a3.07,3.07,0,0,1-2.028-.644c-1.7-2.065,1.236-3.3.871-3.638-.043-.04-.113-.027-.2-.027a3.148,3.148,0,0,0-1.533.736,2.324,2.324,0,0,1-.309-1.16,2.381,2.381,0,0,1,2.394-2.375,2.411,2.411,0,0,1,2.284,1.715c-.4.37-.589.724-.458.8a.08.08,0,0,0,.039.01c.238,0,1-.707,1.931-.707a1.9,1.9,0,0,1,1.171.418,1.449,1.449,0,0,1,.446,1.154A1.3,1.3,0,0,1,119.379,216.095Z" transform="translate(-110.695 -209.734)"/></g><g transform="translate(1.18 27.741)"><path class="c" d="M30.477,205.806a5.069,5.069,0,0,1,.421-2.023c-.391.02-.784.035-1.181.035A22.059,22.059,0,0,1,8.21,186.53a10.989,10.989,0,0,1-3.246-1.912c-.019-.015-.038-.033-.057-.052a25,25,0,0,0,24.81,22.188q.426,0,.85-.016A5.019,5.019,0,0,1,30.477,205.806Z" transform="translate(-4.907 -184.566)"/></g><path class="c" d="M83.529,124.824a21.876,21.876,0,0,1-3.215,11.439c.039.05.079.1.115.15a4.54,4.54,0,0,1,1.668.508,4.774,4.774,0,0,1,.884.609A24.958,24.958,0,0,0,52.171,101.67a9.235,9.235,0,0,1,1.341-.1,8.982,8.982,0,0,1,4.892,1.443,22.12,22.12,0,0,1,3.1-.217q.875,0,1.733.068c.352-.03.7-.049,1.059-.049a12.37,12.37,0,0,1,7.527,2.552A22.049,22.049,0,0,1,83.529,124.824Z" transform="translate(-35.513 -99.859)"/><g transform="translate(28.741 45.882)"><g transform="translate(0 0)"><path class="b" d="M92.164,239.959a3.1,3.1,0,1,0,3.1,3.1A3.1,3.1,0,0,0,92.164,239.959Zm0,4.457a1.358,1.358,0,1,1,1.358-1.358A1.359,1.359,0,0,1,92.164,244.416Z" transform="translate(-89.065 -239.959)"/></g></g><g transform="translate(35.824 35.983)"><path class="b" d="M121.984,214.919a2.711,2.711,0,0,0-1.46-2.344,2.51,2.51,0,0,0-1.189-.3,2.768,2.768,0,0,0-.677.087,4.122,4.122,0,0,0-7.964,1.508,4.112,4.112,0,0,0,.9,2.581,2.2,2.2,0,0,0-.195.959c.059,1.788,1.868,3.192,4.252,3.192a4.7,4.7,0,0,0,3.408-1.26,2.384,2.384,0,0,0,.662-1.468A3.069,3.069,0,0,0,121.984,214.919Zm-2.606,1.176c-.227-.473-.5-.856-.637-.856h0c-.358,0,.92,3.369-3.081,3.369h-.018a3.07,3.07,0,0,1-2.028-.644c-1.7-2.065,1.236-3.3.871-3.638-.043-.04-.113-.027-.2-.027a3.148,3.148,0,0,0-1.533.736,2.324,2.324,0,0,1-.309-1.16,2.381,2.381,0,0,1,2.394-2.375,2.411,2.411,0,0,1,2.284,1.715c-.4.37-.589.724-.458.8a.08.08,0,0,0,.039.01c.238,0,1-.707,1.931-.707a1.9,1.9,0,0,1,1.171.418,1.449,1.449,0,0,1,.446,1.154A1.3,1.3,0,0,1,119.379,216.095Z" transform="translate(-110.695 -209.734)"/></g><g transform="translate(1.18 27.741)"><path class="c" d="M30.477,205.806a5.069,5.069,0,0,1,.421-2.023c-.391.02-.784.035-1.181.035A22.059,22.059,0,0,1,8.21,186.53a10.989,10.989,0,0,1-3.246-1.912c-.019-.015-.038-.033-.057-.052a25,25,0,0,0,24.81,22.188q.426,0,.85-.016A5.019,5.019,0,0,1,30.477,205.806Z" transform="translate(-4.907 -184.566)"/></g><path class="b" d="M133.978,216.662a1.144,1.144,0,0,1,.24.134c.029.02.055.044.083.066a3.832,3.832,0,0,0-.184-.386C134.071,216.536,134.026,216.6,133.978,216.662Z" transform="translate(-90.529 -178.284)"/><path class="a" d="M101.863,164.913a5.385,5.385,0,0,0,5.43,1.494c3.5-.874,2.732-2.733,2.732-2.733l.365-3.061S108.787,165.423,101.863,164.913Z" transform="translate(-68.931 -140.717)"/><g transform="translate(0 3.703)"><path class="b" d="M43.69,128.171a6.26,6.26,0,0,0-3.152-5.407,10.45,10.45,0,0,0-15.72-8.926,7.04,7.04,0,0,0-9.8-1.217,12.1,12.1,0,0,0-1.313-.071,12.335,12.335,0,0,0-1.467.088,11.311,11.311,0,0,0-6.913,3.4,8.407,8.407,0,0,0-2.369,6.82A7.925,7.925,0,0,0,3.179,124a6.833,6.833,0,0,0-1.874,4.56c-.039,4.07,3.877,7.221,8.727,7.527h.1c.283,0,.564-.074.842-.1.263.215.541.391.826.6a12.389,12.389,0,0,0,7.17,2.131,13.5,13.5,0,0,0,4.207-.671,6.458,6.458,0,0,0,3.438,1.225,7.605,7.605,0,0,0,13.735-4.509,7.677,7.677,0,0,0-.081-1.1A6.219,6.219,0,0,0,43.69,128.171Zm-4.936,4.291c-2.114.6-3.276-.31-3.524.126-.2.342,1.749,1.379,3.336,1.487a5.687,5.687,0,0,1,.044.689,5.867,5.867,0,0,1-9.823,4.334,4.02,4.02,0,0,0,1.708-.812c1.936-1.654,1.861-5.572,1.329-5.437s.048,4.406-4.806,4.7a4.5,4.5,0,0,1-3.485-1.5,11.368,11.368,0,0,1-4.561.921c-4.054,0-7.491-1.969-8.432-4.659-.847-2.421.45-4.631.024-4.817s-2.532,2.994-.956,6.722c-3.689-.218-6.588-2.695-6.56-5.69a4.855,4.855,0,0,1,1.233-3.14c.964,1.175,2.582,2.211,2.914,1.713s-1.286-.83-1.982-2.588a6.16,6.16,0,0,1-.531-1.858c-.486-3.992,2.989-7.7,7.763-8.28a10.459,10.459,0,0,1,1.256-.076,10.047,10.047,0,0,1,1.852.17,5.305,5.305,0,0,1,7.568.068,12.545,12.545,0,0,0-1.5-.091,9.287,9.287,0,0,0-1.574.1c-7.334,1.255-8.111,7.579-7.272,7.849s0-4.914,7.482-6.121a8.508,8.508,0,0,1,1.364-.083,10.87,10.87,0,0,1,2.544.3c1.778.493,3.561,2.194,3.894,2.027s-.705-1.783-2.762-2.917a8.7,8.7,0,0,1,13.442,8.285c-.187,1.931-1.058,3.092-.6,3.3s1.451-1.286,1.887-2.684a4.478,4.478,0,0,1-1.267,7.97Z" transform="translate(-1.305 -111.167)"/></g></g><g transform="translate(54.487 40.236)"><path class="c" d="M172.224,230.011h-.959l-.778-4.612h-.02l-.769,4.612h-.959l-1.058-7.109h1.078l.509,4.513h.02l.8-4.513h.778l.829,4.622h.02l.49-4.622h1.078Z" transform="translate(-167.682 -222.842)"/><path class="c" d="M209.894,222.9h3.035v.958h-2.017v2.086h1.757v.96h-1.757v2.086h2.017v1.019h-3.035Z" transform="translate(-196.07 -222.842)"/><path class="c" d="M244.336,222.9h1.488a1.655,1.655,0,0,1,1.806,1.8v.26a1.3,1.3,0,0,1-.7,1.316,1.353,1.353,0,0,1,.7,1.4v.4a1.7,1.7,0,0,1-1.905,1.937h-1.389Zm1.019,2.915h.458c.679,0,.86-.349.86-1,0-.629-.231-.959-.9-.959h-.42Zm0,3.175h.438c.819,0,.88-.5.88-1.2s-.13-1.078-.869-1.078h-.448Z" transform="translate(-219.232 -222.842)"/><path class="c" d="M283.368,224.825h-1.017V224.6c0-.469-.2-.858-.719-.858-.559,0-.688.449-.688.92,0,.548.049.737.578.947l.779.31c.9.338,1.067.907,1.067,1.946,0,1.2-.438,2.085-1.756,2.085a1.677,1.677,0,0,1-1.737-1.685v-.38h1.018v.319a.672.672,0,0,0,.719.729c.688,0,.739-.409.739-1.058,0-.76-.091-.879-.59-1.079l-.728-.3a1.677,1.677,0,0,1-1.109-1.827,1.733,1.733,0,0,1,1.748-1.946,1.664,1.664,0,0,1,1.7,1.608Z" transform="translate(-243.133 -222.72)"/><path class="c" d="M315.647,223.86H314.47V222.9h3.374v.958h-1.178v6.151h-1.019Z" transform="translate(-266.398 -222.842)"/><path class="c" d="M348.754,224.458a1.708,1.708,0,1,1,3.415,0v3.753a1.708,1.708,0,1,1-3.415,0Zm1.018,3.753a.69.69,0,1,0,1.379,0v-3.753a.69.69,0,1,0-1.379,0Z" transform="translate(-289.454 -222.72)"/><path class="c" d="M385.087,222.9h1.636c1.209,0,1.8.709,1.8,2.086a1.812,1.812,0,0,1-.877,1.777l1.1,3.246h-1.078l-.947-3.036h-.609v3.036h-1.018Zm1.018,3.174h.579c.709,0,.819-.4.819-1.108s-.119-1.108-.87-1.108h-.529Z" transform="translate(-313.889 -222.842)"/><path class="c" d="M421.234,222.9h3.036v.958h-2.017v2.086h1.757v.96h-1.757v2.086h2.017v1.019h-3.036Z" transform="translate(-338.198 -222.842)"/></g><g transform="translate(53.601 2.856)"><path class="b" d="M169.929,113.337h-4.952v-4.682h14.537v4.682h-4.927v26.19h-4.657Z" transform="translate(-164.977 -108.63)"/><path class="b" d="M228.634,126.445v13.081h-4.657V108.655h4.657v13.107h5.617V108.655h4.657v30.871h-4.657V126.445Z" transform="translate(-204.655 -108.63)"/><path class="b" d="M290.118,139.526H285.46V108.655h4.658Z" transform="translate(-246.003 -108.63)"/><path class="b" d="M320.8,108.58l6.179,20.765V108.58h4.656v30.9h-5l-6.406-19.782v19.782H315.57v-30.9Z" transform="translate(-266.252 -108.58)"/><path class="b" d="M385.172,129.683v9.792h-4.656v-30.9h4.656v11.013l5.691-11.013h4.965l-6.374,12.6,7.475,18.293h-5.474l-4.889-12.543Z" transform="translate(-309.929 -108.58)"/></g></svg>