<svg xmlns="http://www.w3.org/2000/svg" width="181.63" height="61.197" viewBox="0 0 181.63 61.197"><defs><style>.a{fill:#fff;}.b{fill:#2d3047;}</style></defs><g transform="translate(0 0)"><path class="a" d="M.015,77.237h61.2V16.04H.015" transform="translate(-0.015 -16.04)"/><g transform="translate(10.247 7.606)"><path class="b" d="M32.589,59.966l-2.933-9.61H27.62l-2.932,9.618-2.8-9.618H19.76l3.921,12.783h2l2.94-9.642,2.946,9.642h1.992l3.926-12.783H35.359" transform="translate(-19.76 -40.153)"/><path class="b" d="M67.588,56.817H64.755L59.1,61.831V53.889h0v-6.2l5.944,6h2.822l-7.03-6.943,6.753-5.84H64.755L59.1,45.913V30.7H57.15v46.02H59.1V63.6l5.942,5.864h2.822l-7.03-6.811" transform="translate(-37.745 -30.696)"/><path class="b" d="M90.111,82.8V81.027H81.4V93.674h1.948V88.062h6.1v-1.77h-6.1V82.8" transform="translate(-49.409 -54.906)"/></g><g transform="translate(69.983 10.402)"><path class="a" d="M146.941,48.907h-2.278L143.2,42.465c-.348-1.556-.578-2.914-.673-3.694h-.117c-.1.651-.388,2.3-.677,3.617L140.3,48.907h-2.294l-3.144-12.824h2.005l1.468,6.586c.4,1.856.575,3.248.716,4.047h.116c.149-.909.406-2.414.733-3.877l1.54-6.756h2.142l1.524,6.794c.328,1.425.638,3.226.693,3.784h.119c.113-.723.484-2.8.766-4.1l1.412-6.478h1.927" transform="translate(-134.864 -36.083)"/><path class="a" d="M163.976,58.893a1.222,1.222,0,1,1,1.208-1.221,1.2,1.2,0,0,1-1.208,1.221" transform="translate(-148.29 -45.88)"/><path class="a" d="M181.366,48.924l-4.747-6.832,4.65-5.957H183.6l-4.859,5.938,5.032,6.852Zm-6.716-12.79h1.893v12.79H174.65" transform="translate(-154.002 -36.108)"/><path class="a" d="M195.9,58.893a1.222,1.222,0,1,1,1.208-1.221,1.193,1.193,0,0,1-1.208,1.221" transform="translate(-163.648 -45.88)"/><path class="a" d="M144.363,83.714l-4.75-6.83,4.656-5.959H146.6l-4.864,5.938,5.035,6.851Zm-6.715-12.789h1.89V83.714h-1.89" transform="translate(-136.203 -52.843)"/><path class="a" d="M158.581,83.714V70.925h7.235l-.248,1.467h-5.114v3.9h4.282v1.5h-4.263v4.381h5.556v1.541" transform="translate(-146.272 -52.843)"/><path class="a" d="M183.639,83.714H177V70.925h1.89v11.3h5.055" transform="translate(-155.134 -52.843)"/><path class="a" d="M201.111,83.714h-6.64V70.925h1.891v11.3h5.054" transform="translate(-163.536 -52.843)"/><path class="a" d="M214.345,71.891c-2.352,0-3.3,1.689-3.3,4.973,0,3.266.8,5.493,3.4,5.493,2.067,0,3.245-1.428,3.245-5,0-3.469-.836-5.471-3.342-5.471m.1,11.82c-3.664,0-5.478-2.8-5.478-6.645,0-4.211,2.121-6.567,5.381-6.567,3.917,0,5.461,3.136,5.461,6.7,0,3.916-1.986,6.514-5.364,6.514" transform="translate(-170.508 -52.638)"/><path class="a" d="M239.507,83.739a5.344,5.344,0,0,1-4.2-1.726,6.752,6.752,0,0,1-1.543-4.789c0-2.559.77-4.322,2.3-5.529a5.1,5.1,0,0,1,3.335-1.1,5.7,5.7,0,0,1,3.765,1.28L242.269,73a4.633,4.633,0,0,0-2.839-.967,2.933,2.933,0,0,0-2.856,1.633,7.12,7.12,0,0,0-.735,3.655,6.338,6.338,0,0,0,.949,3.866,3.754,3.754,0,0,0,2.857,1.146,4.041,4.041,0,0,0,1.967-.485V78.209h-2.451l-.309-1.465h4.593V82.72a7.867,7.867,0,0,1-3.938,1.019" transform="translate(-182.435 -52.686)"/><path class="a" d="M262.27,83.739a5.344,5.344,0,0,1-4.207-1.726,6.75,6.75,0,0,1-1.545-4.789c0-2.559.773-4.322,2.3-5.529a5.091,5.091,0,0,1,3.335-1.1,5.707,5.707,0,0,1,3.766,1.28L265.028,73a4.618,4.618,0,0,0-2.834-.967,2.933,2.933,0,0,0-2.856,1.633,7.1,7.1,0,0,0-.736,3.655,6.359,6.359,0,0,0,.945,3.866,3.763,3.763,0,0,0,2.858,1.146,4.032,4.032,0,0,0,1.967-.485V78.209h-2.452l-.3-1.465h4.589V82.72a7.863,7.863,0,0,1-3.936,1.019" transform="translate(-193.382 -52.686)"/><path class="a" d="M144.342,106.9h-4.806v3.881h3.939v1.448h-3.939v5.994h-1.867V105.433H144.6" transform="translate(-136.213 -69.442)"/><path class="a" d="M159.388,106.395c-2.351,0-3.3,1.688-3.3,4.977,0,3.263.791,5.49,3.4,5.49,2.063,0,3.242-1.427,3.242-4.989,0-3.475-.829-5.477-3.34-5.477m.1,11.822c-3.669,0-5.48-2.8-5.48-6.647,0-4.211,2.126-6.568,5.383-6.568,3.917,0,5.463,3.137,5.463,6.7,0,3.92-1.987,6.516-5.365,6.516" transform="translate(-144.071 -69.235)"/><path class="a" d="M187.959,116.919a4.613,4.613,0,0,1-3.821,1.506c-2.008,0-3.338-.611-4.017-1.785a3.7,3.7,0,0,1-.423-2.278v-8.93h1.87v8.259a4.513,4.513,0,0,0,.485,2.488,2.735,2.735,0,0,0,2.106.722,2.6,2.6,0,0,0,2.156-.835,3.408,3.408,0,0,0,.485-2.116v-8.518h1.853v8.781c0,1.613-.1,2-.695,2.706" transform="translate(-156.43 -69.442)"/><path class="a" d="M210.081,118.22l-3.5-6.793a33.325,33.325,0,0,1-1.618-3.507l-.117.02c.1,1.09.137,2.373.153,3.561l.08,6.719H203.21V105.435h2.162l3.707,7.05a24.5,24.5,0,0,1,1.311,3.065l.114-.04c-.036-.368-.193-2.39-.193-3.8l-.04-6.27h1.8V118.22" transform="translate(-167.74 -69.443)"/><path class="a" d="M232.7,107.993a3.132,3.132,0,0,0-2.8-1.131H228.4v9.89h1.468c1.522,0,2.506-.387,3.1-1.427a6.708,6.708,0,0,0,.716-3.266c0-1.783-.193-3.1-.983-4.066m1.6,8.5c-.927,1.114-2.163,1.728-4.478,1.728h-3.319V105.433h3.087c2.3,0,3.765.5,4.978,2.113a7.108,7.108,0,0,1,1.177,4.291,7.034,7.034,0,0,1-1.445,4.655" transform="translate(-178.946 -69.442)"/><path class="a" d="M251.656,107.172h-.117c-.191.724-1.6,5.309-1.831,5.922h3.746c-.237-.595-1.621-5.175-1.8-5.922m3.375,11.025-1.174-3.617h-4.612l-1.158,3.617h-1.931l4.361-12.806h2.316l4.282,12.806" transform="translate(-188.398 -69.422)"/><path class="a" d="M276.02,106.916h-3.458v11.3h-1.835v-11.3h-3.453v-1.484h8.936" transform="translate(-198.556 -69.442)"/><path class="a" d="M289,105.432h1.887V118.22H289" transform="translate(-209.007 -69.442)"/><path class="a" d="M303,106.39c-2.354,0-3.3,1.69-3.3,4.979,0,3.261.8,5.49,3.395,5.49,2.067,0,3.243-1.43,3.243-4.993,0-3.473-.831-5.476-3.337-5.476m.094,11.824c-3.662,0-5.478-2.8-5.478-6.647,0-4.213,2.125-6.571,5.384-6.571,3.918,0,5.458,3.139,5.458,6.7,0,3.918-1.987,6.517-5.364,6.517" transform="translate(-213.153 -69.232)"/><path class="a" d="M329.955,118.219l-3.488-6.793a33.261,33.261,0,0,1-1.622-3.51l-.117.023c.1,1.09.139,2.373.154,3.561l.078,6.719h-1.87V105.432h2.161l3.7,7.052a24.212,24.212,0,0,1,1.312,3.065l.119-.042c-.039-.368-.194-2.391-.194-3.8l-.041-6.272h1.8v12.787" transform="translate(-225.405 -69.442)"/><path class="a" d="M345.063,107.014h.176c.2,0,.37-.068.37-.235,0-.146-.108-.244-.34-.244a.91.91,0,0,0-.206.02Zm.624.9a1.266,1.266,0,0,1-.127-.391c-.03-.166-.127-.243-.332-.243h-.175v.634h-.371v-1.6a4.339,4.339,0,0,1,.615-.049.848.848,0,0,1,.546.128.4.4,0,0,1,.166.341.414.414,0,0,1-.331.381v.019c.155.049.233.174.282.389m-1.892-.439a1.246,1.246,0,0,0,1.248,1.278,1.225,1.225,0,0,0,1.219-1.268,1.235,1.235,0,1,0-2.467-.01m2.877,0a1.643,1.643,0,1,1-1.629-1.6,1.612,1.612,0,0,1,1.629,1.6" transform="translate(-235.3 -69.466)"/></g></g></svg>