<svg xmlns="http://www.w3.org/2000/svg" width="144.504" height="73.336" viewBox="0 0 144.504 73.336"><defs><style>.a{opacity:0.5;}.b{fill:none;}.b,.d{stroke:#fff;}.c{fill:#fff;}.d{fill:#2d3047;stroke-width:0.5px;}</style></defs><g transform="translate(0 0.499)"><g class="a" transform="translate(19.375 0)"><line class="b" y1="19.923" x2="8.431" transform="translate(0 42.232)"/><line class="b" x1="4.928" y1="20.33" transform="translate(3.503 21.902)"/><line class="b" y1="20.097" x2="10.391" transform="translate(3.503 1.806)"/><line class="b" y1="1.806" x2="27.697" transform="translate(13.894)"/><line class="b" x1="1.452" y2="45.32" transform="translate(40.139)"/><line class="b" x2="2.849" y2="23.768" transform="translate(40.139 45.32)"/><line class="b" x1="15.319" y2="3.261" transform="translate(27.669 69.088)"/><line class="b" x1="3.74" y1="6.526" transform="translate(23.929 65.823)"/><line class="b" y1="5.008" x2="1.009" transform="translate(23.929 60.814)"/><line class="b" x1="24.938" y2="1.34" transform="translate(0 60.814)"/></g><g transform="translate(0 13.15)"><path class="c" d="M57.134,98.36c.307.045-.284.067,0,0Z" transform="translate(-27.444 -60.722)"/><path class="c" d="M26.018,25.837A3.165,3.165,0,1,1,22.794,29,3.194,3.194,0,0,1,26.018,25.837Z" transform="translate(-10.964 -25.837)"/><path class="c" d="M58.959,25.837A3.165,3.165,0,1,1,55.734,29,3.194,3.194,0,0,1,58.959,25.837Z" transform="translate(-26.809 -25.837)"/><path class="c" d="M2.747,53.767a1.415,1.415,0,0,0,1.734-.97l1.759-6.3.007,0,.989-3.539L4.542,44.222a1.438,1.438,0,0,0-.36.243,1.378,1.378,0,0,0-.509.735L1.758,52.065A1.382,1.382,0,0,0,2.747,53.767Z" transform="translate(-0.821 -34.069)"/><path class="c" d="M26.018,25.837A3.165,3.165,0,1,1,22.794,29,3.194,3.194,0,0,1,26.018,25.837Z" transform="translate(-10.964 -25.837)"/><path class="c" d="M58.959,25.837A3.165,3.165,0,1,1,55.734,29,3.194,3.194,0,0,1,58.959,25.837Z" transform="translate(-26.809 -25.837)"/><path class="c" d="M31.293,49.843l-1.273-4.83L28.941,48.2,23.6,51.023,18.263,48.2,16.109,41.85a1.268,1.268,0,0,0-.089-.2,4.53,4.53,0,0,0-3.009-2.59c-.1-.027-.195-.049-.291-.067-.065-.007-.135-.016-.21-.026C9.03,38.51,7.488,42.122,7.3,42.611L5,50.852a4.387,4.387,0,0,0,.107,2.69,2.22,2.22,0,0,0,.454,1.03l0,0L5.049,61l-4.8,9.291A2.221,2.221,0,0,0,1.253,73.3a2.307,2.307,0,0,0,3.07-.986L9.3,62.673a2.28,2.28,0,0,0,.238-.824,2.508,2.508,0,0,0,.043-.28l.482-1.306,2.112,2.666,2.826,10.038a2.291,2.291,0,0,0,2.811,1.563,2.237,2.237,0,0,0,1.593-2.757L16.477,61.356a2.26,2.26,0,0,0-.389-.767,2.121,2.121,0,0,0-.162-.234l-2.56-6.089a4.476,4.476,0,0,0,.447-1.054l1.431-5.15.48,1.415a1.886,1.886,0,0,0,.75.92l6.387,3.377a1.766,1.766,0,0,0,1.484,0L30.728,50.4A1.392,1.392,0,0,0,31.293,49.843Z" transform="translate(0 -32.134)"/><path class="c" d="M26.018,25.837A3.165,3.165,0,1,1,22.794,29,3.194,3.194,0,0,1,26.018,25.837Z" transform="translate(-10.964 -25.837)"/><path class="c" d="M58.959,25.837A3.165,3.165,0,1,1,55.734,29,3.194,3.194,0,0,1,58.959,25.837Z" transform="translate(-26.809 -25.837)"/><path class="c" d="M72.642,70.264l-4.8-9.29-.511-6.422,0,0a2.2,2.2,0,0,0,.454-1.03,4.4,4.4,0,0,0,.108-2.69l-1.953-7.016,1.528.72,1.761,6.3a1.411,1.411,0,0,0,1.731.97,1.381,1.381,0,0,0,.989-1.7l-1.916-6.865a1.8,1.8,0,0,0-.867-.978l-5.494-2.592a4.636,4.636,0,0,0-3.8-.635,4.724,4.724,0,0,0-.451.147l.006-.006a3.873,3.873,0,0,0-3.017,3.714l-.012.045,2.675,10.253a4.417,4.417,0,0,0,.444,1.054l-2.559,6.089a2.475,2.475,0,0,0-.163.235,2.232,2.232,0,0,0-.387.766L53.479,71.75a2.237,2.237,0,0,0,1.593,2.758,2.288,2.288,0,0,0,2.809-1.563l2.829-10.038,2.113-2.667.482,1.306a2.562,2.562,0,0,0,.042.281,2.241,2.241,0,0,0,.238.823l4.984,9.641a2.3,2.3,0,0,0,3.067.986A2.22,2.22,0,0,0,72.642,70.264Z" transform="translate(-25.685 -32.11)"/><path class="c" d="M26.018,25.837A3.165,3.165,0,1,1,22.794,29,3.194,3.194,0,0,1,26.018,25.837Z" transform="translate(-10.964 -25.837)"/><path class="c" d="M58.959,25.837A3.165,3.165,0,1,1,55.734,29,3.194,3.194,0,0,1,58.959,25.837Z" transform="translate(-26.809 -25.837)"/><g transform="translate(29.439 7.196)"><path class="d" d="M61.846,41.883l-.11.014A.4.4,0,0,1,61.846,41.883Z" transform="translate(-59.136 -40.751)"/><path class="d" d="M61.846,43.223a.42.42,0,0,1-.11-.014Z" transform="translate(-59.136 -41.389)"/><path class="d" d="M62.146,41.185c0,.622-.413,1.462-.678,1.482a4.826,4.826,0,0,1-1.684-1.028c-.056-.085-.091-.12-.123-.133s-.066,0-.114.016l-.111.014-.111-.014c-.05-.013-.081-.028-.115-.016s-.066.048-.122.133A4.835,4.835,0,0,1,57.4,42.668c-.265-.02-.678-.86-.678-1.482s.414-1.462.678-1.483a4.851,4.851,0,0,1,1.685,1.028c.057.085.091.12.122.132s.065,0,.115-.015l.111-.014.111.014c.048.012.08.028.114.015s.067-.048.123-.132A4.842,4.842,0,0,1,61.468,39.7C61.733,39.723,62.146,40.562,62.146,41.185Z" transform="translate(-56.726 -39.702)"/></g></g><g transform="translate(49.316 18.661)"><path class="c" d="M105.573,49.085v-.54c1.488-.149,1.563-.26,1.544-2.176l-.056-7.515h-.074l-4.464,10.1h-.391l-4.093-9.84h-.056l-.261,5.208c-.074,1.525-.074,2.362-.056,3.069.037.874.465,1.023,1.711,1.134v.558H95.026v-.558c1.06-.112,1.432-.335,1.563-1.1.093-.633.223-1.47.353-3.423l.279-3.832c.168-2.362.056-2.474-1.618-2.642v-.539h3.2l4.111,9.1,4.186-9.1h3.274v.539c-1.618.167-1.73.223-1.674,2.065l.186,6.752c.037,1.935.112,2.046,1.693,2.195v.54Z" transform="translate(-95.026 -36.715)"/><path class="c" d="M127.52,49.085v-.54c1.488-.112,1.656-.223,1.656-1.8V39.356c0-1.581-.168-1.693-1.656-1.823v-.539h5.041v.539c-1.488.13-1.656.242-1.656,1.823v7.385c0,1.581.168,1.693,1.656,1.8v.54Z" transform="translate(-110.656 -36.715)"/><path class="c" d="M145.882,39.6c-.335-1.172-.874-2.493-2.455-2.493a1.925,1.925,0,0,0-2.028,2.009c0,1.3.856,1.934,2.362,2.7,1.544.781,3.218,1.674,3.218,3.72,0,1.991-1.674,3.572-4.2,3.572a5.974,5.974,0,0,1-1.823-.279,6.626,6.626,0,0,1-.967-.391,22.813,22.813,0,0,1-.5-2.939l.577-.149c.3,1.153,1.172,3.069,3.069,3.069a2.022,2.022,0,0,0,2.177-2.176c0-1.321-.986-1.991-2.381-2.734-1.321-.689-3.107-1.637-3.107-3.684,0-1.823,1.47-3.367,3.906-3.367a7.647,7.647,0,0,1,2.381.446c.075.669.186,1.414.335,2.586Z" transform="translate(-116.411 -36.456)"/><path class="c" d="M162.968,39.6c-.335-1.172-.874-2.493-2.455-2.493a1.925,1.925,0,0,0-2.028,2.009c0,1.3.856,1.934,2.362,2.7,1.544.781,3.218,1.674,3.218,3.72,0,1.991-1.674,3.572-4.2,3.572a5.972,5.972,0,0,1-1.823-.279,6.591,6.591,0,0,1-.967-.391,22.709,22.709,0,0,1-.5-2.939l.577-.149c.3,1.153,1.172,3.069,3.069,3.069a2.022,2.022,0,0,0,2.177-2.176c0-1.321-.986-1.991-2.381-2.734-1.321-.689-3.107-1.637-3.107-3.684,0-1.823,1.469-3.367,3.906-3.367a7.646,7.646,0,0,1,2.381.446c.075.669.186,1.414.335,2.586Z" transform="translate(-124.63 -36.456)"/><path class="c" d="M172.8,49.085v-.54c1.488-.112,1.657-.223,1.657-1.8V39.356c0-1.581-.168-1.693-1.657-1.823v-.539h5.042v.539c-1.488.13-1.656.242-1.656,1.823v7.385c0,1.581.168,1.693,1.656,1.8v.54Z" transform="translate(-132.44 -36.715)"/><path class="c" d="M191.167,39.6c-.334-1.172-.874-2.493-2.455-2.493a1.925,1.925,0,0,0-2.028,2.009c0,1.3.856,1.934,2.362,2.7,1.544.781,3.218,1.674,3.218,3.72,0,1.991-1.674,3.572-4.2,3.572a5.974,5.974,0,0,1-1.823-.279,6.591,6.591,0,0,1-.967-.391,22.8,22.8,0,0,1-.5-2.939l.577-.149c.3,1.153,1.172,3.069,3.069,3.069a2.022,2.022,0,0,0,2.177-2.176c0-1.321-.986-1.991-2.381-2.734-1.321-.689-3.106-1.637-3.106-3.684,0-1.823,1.469-3.367,3.906-3.367a7.646,7.646,0,0,1,2.381.446c.075.669.186,1.414.335,2.586Z" transform="translate(-138.194 -36.456)"/><path class="c" d="M208.253,39.6c-.334-1.172-.874-2.493-2.455-2.493a1.925,1.925,0,0,0-2.028,2.009c0,1.3.856,1.934,2.362,2.7,1.544.781,3.218,1.674,3.218,3.72,0,1.991-1.674,3.572-4.2,3.572a5.976,5.976,0,0,1-1.824-.279,6.616,6.616,0,0,1-.967-.391,22.814,22.814,0,0,1-.5-2.939l.576-.149c.3,1.153,1.172,3.069,3.069,3.069a2.022,2.022,0,0,0,2.177-2.176c0-1.321-.986-1.991-2.381-2.734-1.321-.689-3.107-1.637-3.107-3.684,0-1.823,1.469-3.367,3.906-3.367a7.65,7.65,0,0,1,2.381.446c.074.669.186,1.414.335,2.586Z" transform="translate(-146.413 -36.456)"/><path class="c" d="M218.09,49.085v-.54c1.488-.112,1.657-.223,1.657-1.8V39.356c0-1.581-.168-1.693-1.657-1.823v-.539h5.042v.539c-1.488.13-1.656.242-1.656,1.823v7.385c0,1.581.168,1.693,1.656,1.8v.54Z" transform="translate(-154.223 -36.715)"/><path class="c" d="M235.244,36.994a5.324,5.324,0,0,1,3.144.762,3.1,3.1,0,0,1,1.227,2.642,3.8,3.8,0,0,1-3.646,3.832,4.137,4.137,0,0,1-.818.018l-1.358-.353V46.76c0,1.563.149,1.674,1.8,1.786v.54h-5.172v-.54c1.47-.112,1.637-.26,1.637-1.8V39.356c0-1.637-.168-1.712-1.526-1.823v-.539Zm-1.45,6.269a3.792,3.792,0,0,0,1.283.2c1.116,0,2.586-.614,2.586-3a2.562,2.562,0,0,0-2.716-2.865,1.548,1.548,0,0,0-.968.223c-.13.112-.185.335-.185.819Z" transform="translate(-160.157 -36.715)"/><path class="c" d="M254.349,36.994a5.321,5.321,0,0,1,3.144.762A3.1,3.1,0,0,1,258.72,40.4a3.8,3.8,0,0,1-3.646,3.832,4.132,4.132,0,0,1-.818.018L252.9,43.9V46.76c0,1.563.149,1.674,1.8,1.786v.54h-5.171v-.54c1.469-.112,1.637-.26,1.637-1.8V39.356c0-1.637-.168-1.712-1.525-1.823v-.539ZM252.9,43.263a3.8,3.8,0,0,0,1.283.2c1.116,0,2.586-.614,2.586-3a2.561,2.561,0,0,0-2.715-2.865,1.547,1.547,0,0,0-.968.223c-.13.112-.186.335-.186.819Z" transform="translate(-169.346 -36.715)"/><path class="c" d="M268.728,49.085v-.54c1.488-.112,1.655-.223,1.655-1.8V39.356c0-1.581-.167-1.693-1.655-1.823v-.539h5.041v.539c-1.488.13-1.656.242-1.656,1.823v7.385c0,1.581.168,1.693,1.656,1.8v.54Z" transform="translate(-178.581 -36.715)"/></g><g transform="translate(50.387 29.433)"><path class="c" d="M103.776,71.373a51.744,51.744,0,0,1,2.587-6.157q1.824-3.628,2.807-3.628a.737.737,0,0,1,.828.839,1.228,1.228,0,0,1-.207.594,7.972,7.972,0,0,0-.052,1.02,26.342,26.342,0,0,0,.9,6.635q1.1,4.169,2.647,4.169,1.742,0,2.878-4a20.43,20.43,0,0,0,.878-5.525,16.2,16.2,0,0,0-.516-4.337q-.788-2.8-2.543-2.8a1.7,1.7,0,0,0-1.162.659,1.735,1.735,0,0,1-.426-.026,1.29,1.29,0,0,1-.232-.336q.051-.542.942-.942a3.169,3.169,0,0,1,1.252-.322q1.769,0,2.931,2.285a9.254,9.254,0,0,1,1.019,3.718q.013.3.013.633a24.392,24.392,0,0,1-1.161,7.435q-1.459,4.557-3.821,4.558-2.465,0-3.782-5.112a28.993,28.993,0,0,1-.917-7.178v-.207a26.7,26.7,0,0,0-2.516,4.854,33.829,33.829,0,0,0-1.938,5.6,6.725,6.725,0,0,0-.167.941q-.116,1.3-.645,1.446a1.481,1.481,0,0,1-.271.025q-.71,0-.658-.826.258-3.549.258-3.536,0-4.3-.077-5.564-.31-4.273-1.343-4.273-.568,0-1.472,1.214Q99.206,64.106,98.6,65a1.529,1.529,0,0,1-.994.736l-.516-.374q.039-.968,1.717-2.666t2.569-1.7q1.7,0,2.259,2.853a24.181,24.181,0,0,1,.258,4.131Q103.892,69.075,103.776,71.373Z" transform="translate(-97.089 -57.212)"/><path class="c" d="M142.384,81.76A1.951,1.951,0,0,1,140.59,81a3.021,3.021,0,0,1-.62-1.949,11.428,11.428,0,0,1,.949-4.305q.949-2.317,1.775-2.317.749,0,.749.633a1.887,1.887,0,0,1-.426.748,8.493,8.493,0,0,0-2.04,5.022q0,2.014,1.007,2.014,1.523,0,2.982-2.775a8.9,8.9,0,0,0,1.278-3.86q0-2.1-1.046-2.1a2.586,2.586,0,0,0-1.7.852l-.194-.116a.335.335,0,0,1-.181-.31q0-.437.929-.891a3.055,3.055,0,0,1,1.148-.374q2.093,0,2.169,3.227a8.758,8.758,0,0,1-1.382,4.119Q144.333,81.592,142.384,81.76Z" transform="translate(-117.716 -63.972)"/><path class="c" d="M159.06,74.1q1.6-4.079,3.434-4.08a1.273,1.273,0,0,1,1.42,1.111q.116.671-.439.671a.265.265,0,0,1-.258-.155,1.963,1.963,0,0,1-.1-.322l-.026-.142a.3.3,0,0,0-.336-.258q-.632,0-1.613,1.343a11.894,11.894,0,0,0-1.613,2.891,9.227,9.227,0,0,0-.465,3.2q0,.065.09,2.1a.606.606,0,0,1-.251.458.778.778,0,0,1-.5.213q-.723,0-.633-1.123.232-2.607.232-4.338a40.357,40.357,0,0,0-.232-4.053.855.855,0,0,1,.722-.8.646.646,0,0,1,.62.426,1.045,1.045,0,0,1,.1.581A16.925,16.925,0,0,0,159.06,74.1Z" transform="translate(-126.273 -63.373)"/><path class="c" d="M174.246,76.874q-1.536-.348-2.091-2.582a16.868,16.868,0,0,1-.349-3.628,50.445,50.445,0,0,1,.646-5.473q.8-5.318,1.562-5.318a.767.767,0,0,1,.387.207.677.677,0,0,1,.3.5.358.358,0,0,1-.025.129,30.084,30.084,0,0,0-1.717,9.824,15.851,15.851,0,0,0,.564,4.492q.269.891.653.993c.376.1.564.255.564.452a.4.4,0,0,1-.161.3A.366.366,0,0,1,174.246,76.874Zm6.312.116-.22-.052.052.052a.327.327,0,0,1-.232-.3,1.14,1.14,0,0,1,.115-.383,1.173,1.173,0,0,0,.117-.461q0-1.8-2.375-2.713a9.337,9.337,0,0,0-3.344-.623l-.426.013c-.266.009-.426.013-.477.013q-.568,0-.568-.84a5.432,5.432,0,0,1,.813-.878,17.371,17.371,0,0,0,1.742-1.975,13.851,13.851,0,0,0,1.73-3.253q.272-.671.62-.671.67,0,.671.774,0,1.5-3.937,5.615a17.811,17.811,0,0,1,4.053,1.123,3.422,3.422,0,0,1,2.3,3.137,2.608,2.608,0,0,1-.155.723Q180.831,76.926,180.559,76.99Z" transform="translate(-133.03 -58.492)"/><path class="c" d="M198.2,72.071a2.086,2.086,0,0,1-.51-.233,1.818,1.818,0,0,0-.652-.245,3.945,3.945,0,0,0-2.453,1.278q-1.627,1.4-1.627,2.388,0,.529,1.885.529,3.641,0,3.641,2.027a3.183,3.183,0,0,1-1.611,2.569,5.067,5.067,0,0,1-2.924,1.033,2,2,0,0,1-1.2-.4,1.376,1.376,0,0,1-.644-1.175,1.361,1.361,0,0,1,.255-.7q.293-.463.625-.464a.446.446,0,0,1,.179.038,2.55,2.55,0,0,1-.149.7.78.78,0,0,0-.058.3q0,.581.7.581a5.547,5.547,0,0,0,2.446-.7q1.532-.775,1.531-1.626a1.026,1.026,0,0,0-.53-.878,1.933,1.933,0,0,0-.97-.309l-2.484-.091a3.613,3.613,0,0,1-1.2-.258q-.789-.311-.788-.826,0-1.279,2.007-3.234t3.388-1.956a2.1,2.1,0,0,1,.943.3q.658.362.658.8Q198.651,72.072,198.2,72.071Z" transform="translate(-142.577 -63.565)"/></g></g></svg>